<svg xmlns="http://www.w3.org/2000/svg" viewBox="0 0 602 182">
  <path fill="#FF9900" d="M374.006,142.184L374.006,142.184l-22.223-7.59c-0.2-0.1-0.4-0.1-0.6,0.1c-0.2,0.2-0.3,0.4-0.2,0.7 c0.1,0.2,11.7,31.9,11.7,31.9c0.2,0.6,0.8,1.1,1.4,1.1h22.4c0.5,0,0.9-0.3,1.2-0.7c0.2-0.4,0.2-0.9-0.1-1.3l-12.7-24.2 C374.606,142.584,374.306,142.284,374.006,142.184z"/>
  <path d="M181.406,99.984c-1.3,0-2.3,0.9-2.5,2.1c0,0.1-2.5,17.6-2.5,17.6c-0.2,1.6,1,3,2.6,3.2c1.6,0.2,3-1,3.2-2.6l2.5-17.6 C184.906,101.084,183.306,99.984,181.406,99.984z"/>
  <path d="M92.406,147.284c-0.4-0.3-0.9-0.3-1.3-0.1l-14.8,7.4c-0.5,0.2-0.7,0.7-0.7,1.2v16.3c0,0.8,0.6,1.4,1.4,1.4h16.3 c0.5,0,0.9-0.2,1.2-0.7l7.4-14.8c0.2-0.4,0.2-0.9-0.1-1.3L92.406,147.284z"/>
</svg> 