<svg xmlns="http://www.w3.org/2000/svg" viewBox="0 0 1365.3 1365.3">
  <path fill="#1877F2" d="M1365.3 682.7c0-377-305.6-682.7-682.7-682.7C305.6 0 0 305.6 0 682.7c0 340.7 249.6 623.3 576 674.3V880H402.7V682.7H576V532c0-171.1 102-265.6 257.9-265.6 74.6 0 152.8 13.3 152.8 13.3v168h-86.1c-84.8 0-111.3 52.6-111.3 106.6v128h189.4l-30.3 197.3H789v477c326.4-51 576-333.6 576-674.3"/>
  <path fill="#FFF" d="M947.8 880l30.3-197.3H789v-128c0-54 26.5-106.6 111.3-106.6h86.1v-168s-78.2-13.3-152.8-13.3C678.6 266.4 576 361 576 532v150.7H402.7V880H576v477c34.8 5.5 70.4 8.3 106.6 8.3 36.2 0 71.8-2.8 106.6-8.3V880h158.6"/>
</svg> 